<?xml version="1.0" encoding="utf-8"?>
<!-- Generator: Adobe Illustrator 15.1.0, SVG Export Plug-In . SVG Version: 6.00 Build 0)  -->
<!DOCTYPE svg PUBLIC "-//W3C//DTD SVG 1.1//EN" "http://www.w3.org/Graphics/SVG/1.1/DTD/svg11.dtd">
<svg version="1.1" id="Capa_1" xmlns="http://www.w3.org/2000/svg" xmlns:xlink="http://www.w3.org/1999/xlink" x="0px" y="0px"
	 width="59.875px" height="46.625px" viewBox="18.25 30.125 59.875 46.625" enable-background="new 18.25 30.125 59.875 46.625"
	 xml:space="preserve">
<g id="Capa_53">
	<path fill="#FFFFFF" stroke="#FFFFFF" stroke-miterlimit="10" d="M74.457,44.022H52.405c-0.013-0.185-0.027-0.359-0.042-0.511
		l-0.781-7.388c-0.1-0.949-0.895-1.736-1.826-1.865c-0.015-0.042-0.029-0.073-0.044-0.116l0.051,0.009
		c0.156,0.026,3.828,0.609,6.345,0.609c0,0,0,0,0.003,0c0.725,0,1.275-0.048,1.68-0.146c0.814-0.195,0.983-0.608,0.983-0.921
		c0-1.065-1.856-1.065-2.651-1.065c-2.521,0-6.205,0.589-6.36,0.614l-0.398,0.064c-0.422-0.898-0.738-1.121-1.071-1.121
		c-0.339,0-0.65,0.219-1.069,1.121l-0.401-0.064c-0.156-0.025-3.838-0.614-6.358-0.614c-0.792,0-2.651,0-2.651,1.065
		c0,0.946,1.425,1.067,2.666,1.067c0,0,0,0,0,0c2.519,0,6.188-0.583,6.343-0.608l0.056-0.009c-0.017,0.041-0.029,0.073-0.045,0.115
		c-0.933,0.128-1.727,0.916-1.827,1.866l-0.783,7.388c-0.016,0.154-0.029,0.327-0.041,0.512H22.135c-1.071,0-1.941,0.87-1.941,1.94
		v3.403c0,1.044,0.843,1.99,1.878,2.107l22.553,2.528c0.015,0.128,0.028,0.249,0.042,0.354l1.493,11.998l-5.336,1.117
		c-1.018,0.213-1.816,1.193-1.816,2.235v1.213c0,1.069,0.872,1.939,1.942,1.939h6.02c0.122,0.922,0.613,1.846,1.323,1.846
		c0.744,0,1.206-0.951,1.324-1.846h6.021c1.07,0,1.94-0.871,1.94-1.939v-1.213c0-1.042-0.795-2.022-1.812-2.234l-5.337-1.118
		l1.494-11.998c0.013-0.106,0.026-0.226,0.04-0.353l22.551-2.529c1.037-0.117,1.88-1.061,1.88-2.106v-3.404
		C76.396,44.893,75.524,44.022,74.457,44.022z M56.125,33.548c0.876,0,1.326,0.078,1.551,0.144c-0.226,0.066-0.68,0.145-1.564,0.145
		c-0.786,0-1.703-0.061-2.587-0.143C54.415,33.61,55.336,33.548,56.125,33.548z M40.481,33.838L40.481,33.838
		c-0.885,0-1.339-0.079-1.565-0.146c0.226-0.067,0.676-0.143,1.552-0.143c0.789,0,1.71,0.062,2.599,0.146
		C42.183,33.777,41.267,33.838,40.481,33.838z M75.474,49.364c0,0.581-0.484,1.125-1.061,1.19l-23.285,2.614l-0.039,0.366
		c-0.028,0.26-0.055,0.505-0.082,0.707l-1.597,12.84l6.167,1.291c0.586,0.121,1.081,0.732,1.081,1.333v1.212
		c0,0.561-0.457,1.02-1.021,1.02h-6.835l-0.094,0.781c-0.074,0.59-0.298,0.948-0.413,1.045c-0.116-0.097-0.339-0.455-0.413-1.041
		l-0.096-0.785H40.95c-0.562,0-1.02-0.458-1.02-1.02v-1.212c0-0.601,0.496-1.211,1.083-1.333l6.167-1.291l-1.598-12.844
		c-0.024-0.176-0.046-0.384-0.069-0.606l-0.05-0.463l-23.288-2.615c-0.575-0.063-1.06-0.608-1.06-1.189v-3.402
		c0-0.562,0.457-1.019,1.019-1.019h22.924l0.021-0.438c0.016-0.329,0.035-0.644,0.062-0.898l0.781-7.387
		c0.061-0.574,0.6-1.06,1.177-1.06h0.39l0.109-0.308c0.128-0.362,0.239-0.65,0.337-0.88l0.358-0.058l0.36,0.058
		c0.097,0.23,0.209,0.519,0.337,0.879l0.108,0.306h0.389c0.576,0,1.116,0.487,1.176,1.06l0.782,7.386
		c0.026,0.257,0.046,0.573,0.064,0.902l0.022,0.435h22.922c0.559,0,1.017,0.457,1.017,1.018L75.474,49.364L75.474,49.364z"/>
</g>
</svg>
