<?xml version="1.0" encoding="UTF-8" standalone="no"?>
<svg width="96px" height="99px" viewBox="0 0 96 99" version="1.1" xmlns="http://www.w3.org/2000/svg" xmlns:xlink="http://www.w3.org/1999/xlink" xmlns:sketch="http://www.bohemiancoding.com/sketch/ns">
    <!-- Generator: Sketch 3.2.2 (9983) - http://www.bohemiancoding.com/sketch -->
    <title>noun_4885_cc</title>
    <desc>Created with Sketch.</desc>
    <defs></defs>
    <g id="Page-1" stroke="none" stroke-width="1" fill="none" fill-rule="evenodd" sketch:type="MSPage">
        <g id="noun_4885_cc" sketch:type="MSLayerGroup" fill="#000000">
            <path d="M5.908,48.418 C5.932,48.216 5.907,47.977 6.115,47.913 C7.337,47.538 11.478,48.705 12.249,48.897 C13.144,49.121 14.267,49.402 15.069,49.909 C15.482,51.869 15.881,53.262 16.553,55.42 C12.853,55.665 9.113,54.169 8.559,53.943 C7.625,53.564 7.011,53.077 6.529,52.203 C6.031,51.301 5.727,49.983 5.908,48.418 L5.908,48.418 Z" id="Shape" sketch:type="MSShapeGroup"></path>
            <path d="M5.163,52.554 C4.468,52.274 3.278,51.629 1.511,50.496 C-0.178,49.413 1.442,48.568 1.962,48.2 C2.808,47.6 4.391,46.453 5.233,46.212 C4.401,47.839 4.122,50.906 5.163,52.554 L5.163,52.554 Z" id="Shape" sketch:type="MSShapeGroup"></path>
            <path d="M14.452,0.805 C19.149,-0.264 27.503,11.52 31.577,20.37 C33.82,25.243 38.166,37.806 39.981,45.237 C40.531,47.488 42.508,48.156 44.85,48.392 C45.898,48.497 50.206,48.943 55.619,48.929 C68.307,48.897 89.949,48.472 91.812,48.381 L91.849,48.569 C84.528,49.485 67.576,51.839 64.031,52.468 C56.199,53.86 53.362,54.585 46.634,57.057 C45.402,57.509 43.212,58.714 44.296,61.934 C45.99,66.966 46.746,74.421 47.061,78.674 C48.185,93.813 42.569,98.247 40.766,98.517 C39.496,98.706 36.622,97.466 34.341,94.289 C23.702,79.469 14.497,46.209 12.71,28.882 C12.231,24.248 9.031,2.039 14.452,0.805 L14.452,0.805 Z M19.314,12.161 C15.752,11.834 13.046,14.214 13.046,17.742 C13.046,20.681 15.752,23.986 19.314,24.312 C22.876,24.639 25.763,22.36 25.765,18.833 C25.767,15.306 22.877,12.487 19.314,12.161 L19.314,12.161 Z M38.759,80.079 C35.506,78.525 31.984,79.013 30.572,81.252 C29.397,83.117 30.644,86.237 33.898,87.791 C37.151,89.344 40.804,88.989 42.217,86.75 C43.63,84.513 42.013,81.631 38.759,80.079 L38.759,80.079 Z" id="Shape" sketch:type="MSShapeGroup"></path>
            <path d="M19.987,21.784 C19.843,21.784 19.695,21.777 19.548,21.764 C17.363,21.564 15.605,19.4 15.605,17.742 C15.605,15.888 16.807,14.69 18.668,14.69 C18.803,14.69 18.942,14.696 19.081,14.709 C21.395,14.921 23.208,16.732 23.207,18.832 C23.206,21.011 21.472,21.784 19.987,21.784 L19.987,21.784 Z M18.48,17.195 C17.97,17.628 17.968,18.462 18.473,19.057 C18.979,19.651 19.802,19.782 20.311,19.348 C20.822,18.914 20.825,18.081 20.318,17.487 C19.814,16.893 18.991,16.761 18.48,17.195 L18.48,17.195 Z" id="Shape" sketch:type="MSShapeGroup"></path>
            <path d="M40.242,85.523 C39.68,86.953 37.517,87.442 35.412,86.614 C33.307,85.787 32.056,83.957 32.619,82.525 C33.181,81.094 35.344,80.607 37.449,81.434 C39.554,82.263 40.805,84.093 40.242,85.523 L40.242,85.523 Z M36.616,82.916 C35.656,82.575 34.7,82.793 34.482,83.404 C34.264,84.016 34.866,84.79 35.827,85.131 C36.786,85.474 37.742,85.255 37.96,84.645 C38.178,84.032 37.577,83.259 36.616,82.916 L36.616,82.916 Z" id="Shape" sketch:type="MSShapeGroup"></path>
            <path d="M89.854,39.554 C88.806,36.506 88.422,35.959 87.405,34.273 C85.762,31.55 83.864,31.237 81.878,31.899 C80.554,32.34 79.018,34.27 78.44,37.742 C78.176,39.32 78.336,42.374 78.68,44.702 C78.298,44.724 65.745,44.262 63.978,44.126 C62.211,43.99 50.227,43.855 48.805,43.867 C47.382,43.879 43.583,43.785 41.198,43.867 C41.788,46.386 42.574,46.661 45.537,46.915 C46.391,46.989 50.842,47.391 56.309,47.376 C68.718,47.344 84.161,47.376 86.871,47.249 C88.222,47.186 90.193,47.273 91.59,47.149 C91.194,44.649 90.068,40.178 89.854,39.554 L89.854,39.554 Z" id="Shape" sketch:type="MSShapeGroup"></path>
            <path d="M95.94,41.221 C95.756,39.786 93.512,39.133 91.291,39.339 C92.106,42.109 92.589,43.93 93.05,46.915 C94.26,46.063 96.383,44.689 95.94,41.221 L95.94,41.221 Z" id="Shape" sketch:type="MSShapeGroup"></path>
            <path d="M92.989,53.883 C92.821,52.654 92.61,51.827 92.112,49.965 C88.443,50.573 83.139,51.227 80.552,51.46 C81.19,52.856 81.927,53.975 82.804,55.063 C85.482,58.384 87.506,59.778 90.873,59.778 C92.177,59.778 93.015,58.425 93.101,57.729 C93.184,57.061 93.288,56.059 92.989,53.883 L92.989,53.883 Z" id="Shape" sketch:type="MSShapeGroup"></path>
            <path d="M14.645,48.083 C14.374,47.219 13.964,45.12 13.964,45.12 C13.437,44.883 7.632,45.222 6.885,45.74 C6.761,45.887 6.664,46.112 6.53,46.45 C10.464,46.572 12.757,47.536 14.645,48.083 L14.645,48.083 Z" id="Shape" sketch:type="MSShapeGroup"></path>
            <path d="M7.618,44.398 C7.37,43.007 7.115,41.847 6.844,40.718 C5.808,36.395 5.105,36.032 4.528,36.032 L4.435,36.037 C3.833,36.108 3.189,36.561 3.171,41.075 C3.166,42.486 3.227,44.182 3.343,45.95 C3.664,45.76 4.128,45.508 4.554,45.309 C4.314,41.255 4.323,38.422 4.598,37.44 C5.083,38.315 5.802,40.826 6.492,44.701 C6.778,44.604 7.285,44.458 7.618,44.398 L7.618,44.398 Z" id="Shape" sketch:type="MSShapeGroup"></path>
            <path d="M7.808,54.78 C8.271,60.233 8.184,64.111 7.856,65.285 C7.211,64.121 6.146,60.024 5.296,53.744 C5.25,53.74 4.479,53.468 4.096,53.273 C4.526,56.557 5.044,59.648 5.611,62.009 C6.647,66.331 7.35,66.694 7.927,66.694 L8.02,66.689 C8.622,66.618 9.266,66.165 9.284,61.651 C9.291,59.834 9.195,57.661 9.002,55.289 C8.746,55.218 8.12,54.955 7.808,54.78 L7.808,54.78 Z" id="Shape" sketch:type="MSShapeGroup"></path>
        </g>
    </g>
</svg>