<?xml version="1.0" encoding="UTF-8" standalone="no"?>
<svg width="87px" height="98px" viewBox="0 0 87 98" version="1.1" xmlns="http://www.w3.org/2000/svg" xmlns:xlink="http://www.w3.org/1999/xlink" xmlns:sketch="http://www.bohemiancoding.com/sketch/ns">
    <!-- Generator: Sketch 3.2.2 (9983) - http://www.bohemiancoding.com/sketch -->
    <title>Rectangle 1 + pilot</title>
    <desc>Created with Sketch.</desc>
    <defs></defs>
    <g id="Page-1" stroke="none" stroke-width="1" fill="none" fill-rule="evenodd" sketch:type="MSPage">
        <g id="Rectangle-1-+-pilot" sketch:type="MSLayerGroup">
            <rect id="Rectangle-1" fill="#FEFEFE" sketch:type="MSShapeGroup" x="0" y="0" width="87" height="98"></rect>
            <g id="pilot" transform="translate(4.000000, 5.000000)" fill="#000000" sketch:type="MSShapeGroup">
                <g id="Page-1">
                    <g id="noun_50997_cc">
                        <path d="M13.775,88.308 L13.775,81.112 L16.159,81.112 L16.159,88.308 L62.91,88.308 L62.911,81.109 L65.216,81.109 L65.216,88.308 L78.679,88.308 L78.679,79.782 C78.679,65.944 71.964,52.384 58.593,52.384 L20.025,52.363 C7.841,52.363 0.209,64.392 0.209,79.402 L0.209,88.308 L13.775,88.308 L13.775,88.308 Z" id="Shape"></path>
                        <path d="M62.173,18.271 C61.115,11.494 57.22,6.607 50.913,3.973 C50.893,3.102 50.335,2.302 49.457,2.029 C46.145,0.997 42.358,0.473 38.204,0.473 C34.047,0.473 30.261,0.997 26.949,2.03 C26.092,2.297 25.537,3.067 25.493,3.914 C19.105,6.534 15.162,11.442 14.096,18.267 C11.326,18.468 9.139,20.773 9.139,23.594 L9.139,30.801 C9.139,33.755 11.534,36.149 14.487,36.149 L15.287,36.149 C15.891,37.267 16.739,38.756 17.748,40.303 C19.909,43.616 20.211,43.695 23.529,43.695 L31.267,43.695 C31.498,44.409 32.161,44.929 32.952,44.929 L36.356,44.929 C37.338,44.929 38.134,44.132 38.134,43.149 C38.134,42.168 37.338,41.371 36.356,41.371 L32.952,41.371 C32.161,41.371 31.499,41.89 31.267,42.603 L23.529,42.603 C20.551,42.603 20.551,42.603 18.663,39.707 C17.296,37.611 16.227,35.621 15.683,34.559 L15.683,18.987 C16.348,14.146 18.794,8.425 26.048,5.44 C26.439,5.859 26.989,6.107 27.57,6.107 C27.776,6.107 27.986,6.076 28.192,6.012 C31.101,5.105 34.47,4.645 38.205,4.645 C41.938,4.645 45.308,5.104 48.216,6.012 C48.987,6.251 49.784,6.017 50.315,5.481 C57.195,8.351 59.713,13.695 60.494,18.378 L60.494,36.148 L61.691,36.148 C64.644,36.148 67.038,33.754 67.038,30.801 L67.038,23.594 C67.036,20.804 64.898,18.516 62.173,18.271 L62.173,18.271 L62.173,18.271 Z" id="Shape"></path>
                        <path d="M38.204,6.36 C26.695,6.36 17.366,15.689 17.366,27.197 C17.366,32.869 19.635,38.009 23.312,41.767 L23.529,41.767 L30.74,41.767 C31.209,41.012 32.036,40.535 32.951,40.535 L36.355,40.535 C37.796,40.535 38.968,41.707 38.968,43.148 C38.968,44.589 37.796,45.762 36.355,45.762 L32.951,45.762 C32.035,45.762 31.208,45.285 30.74,44.528 L26.634,44.528 C29.944,46.741 33.923,48.033 38.204,48.033 C49.713,48.033 59.042,38.706 59.042,27.197 C59.042,15.689 49.713,6.36 38.204,6.36 L38.204,6.36 L38.204,6.36 Z" id="Shape"></path>
                    </g>
                </g>
            </g>
        </g>
    </g>
</svg>