<?xml version="1.0" encoding="UTF-8" standalone="no"?>
<svg width="69px" height="69px" viewBox="0 0 69 69" version="1.1" xmlns="http://www.w3.org/2000/svg" xmlns:xlink="http://www.w3.org/1999/xlink" xmlns:sketch="http://www.bohemiancoding.com/sketch/ns">
    <!-- Generator: Sketch 3.2.2 (9983) - http://www.bohemiancoding.com/sketch -->
    <title>noun_96381_cc</title>
    <desc>Created with Sketch.</desc>
    <defs></defs>
    <g id="Page-1" stroke="none" stroke-width="1" fill="none" fill-rule="evenodd" sketch:type="MSPage">
        <g id="noun_96381_cc" sketch:type="MSLayerGroup" fill="#010101">
            <g id="surface1" sketch:type="MSShapeGroup">
                <path d="M59.230469,63.078125 C59.226562,62.710938 59.101562,62.109375 59.101562,62.109375 L54.15625,23.179688 C54.15625,23.179688 63.953125,14.0625 66.410156,10.371094 C67.75,8.351562 69.808594,2.554688 68.140625,0.785156 C66.371094,-0.882812 60.574219,1.175781 58.554688,2.515625 C54.863281,4.96875 43.59375,14.492188 43.59375,14.492188 L6.816406,9.824219 C6.816406,9.824219 6.21875,9.699219 5.847656,9.695312 C5.109375,9.6875 3.746094,11.21875 3.746094,11.21875 L0.027344,15.742188 L33.71875,25.367188 L18.609375,44.746094 L5.550781,45.015625 L0.6875,46.757812 L14.355469,54.570312 L22.167969,68.234375 L23.90625,63.375 L24.179688,50.316406 L43.554688,35.207031 L53.1875,68.894531 L57.710938,65.179688 C57.707031,65.179688 59.234375,63.816406 59.230469,63.078125 L59.230469,63.078125 Z" id="Shape"></path>
            </g>
        </g>
    </g>
</svg>